# Blender 5.0.1
# www.blender.org
mtllib Sphere.mtl
o Sphere
v 0.000000 1.000000 0.000000
v 0.000000 0.965926 -0.258819
v 0.000000 0.500000 -0.866025
v 0.000000 0.258819 -0.965926
v 0.000000 0.000000 -1.000000
v 0.000000 -0.258819 -0.965926
v 0.000000 -0.500000 -0.866025
v 0.000000 -0.707107 -0.707107
v 0.000000 -0.965926 -0.258819
v 0.000000 -1.000000 0.000000
v 0.066987 0.965926 -0.250000
v 0.129410 0.866025 -0.482963
v 0.183013 0.707107 -0.683013
v 0.224144 0.500000 -0.836516
v 0.250000 0.258819 -0.933013
v 0.258819 0.000000 -0.965926
v 0.250000 -0.258819 -0.933013
v 0.224144 -0.500000 -0.836516
v 0.183013 -0.707107 -0.683013
v 0.129410 -0.866025 -0.482963
v 0.066987 -0.965926 -0.250000
v 0.129410 0.965926 -0.224144
v 0.250000 0.866025 -0.433013
v 0.353553 0.707107 -0.612372
v 0.433013 0.500000 -0.750000
v 0.482963 0.258819 -0.836516
v 0.500000 0.000000 -0.866025
v 0.482963 -0.258819 -0.836516
v 0.433013 -0.500000 -0.750000
v 0.353553 -0.707107 -0.612372
v 0.250000 -0.866025 -0.433013
v 0.129410 -0.965926 -0.224144
v 0.183013 0.965926 -0.183013
v 0.353553 0.866025 -0.353553
v 0.500000 0.707107 -0.500000
v 0.612372 0.500000 -0.612372
v 0.683013 0.258819 -0.683013
v 0.707107 0.000000 -0.707107
v 0.683013 -0.258819 -0.683013
v 0.612372 -0.500000 -0.612372
v 0.500000 -0.707107 -0.500000
v 0.353553 -0.866025 -0.353553
v 0.183013 -0.965926 -0.183013
v 0.224144 0.965926 -0.129410
v 0.433013 0.866025 -0.250000
v 0.612372 0.707107 -0.353553
v 0.750000 0.500000 -0.433013
v 0.836516 0.258819 -0.482963
v 0.866025 0.000000 -0.500000
v 0.836516 -0.258819 -0.482963
v 0.750000 -0.500000 -0.433013
v 0.612372 -0.707107 -0.353553
v 0.433013 -0.866025 -0.250000
v 0.224144 -0.965926 -0.129410
v 0.250000 0.965926 -0.066987
v 0.482963 0.866025 -0.129409
v 0.683013 0.707107 -0.183013
v 0.836516 0.500000 -0.224144
v 0.933013 0.258819 -0.250000
v 0.965926 0.000000 -0.258819
v 0.933013 -0.258819 -0.250000
v 0.836516 -0.500000 -0.224144
v 0.683013 -0.707107 -0.183013
v 0.482963 -0.866025 -0.129409
v 0.250000 -0.965926 -0.066987
v 0.258819 0.965926 0.000000
v 0.500000 0.866025 0.000000
v 0.707107 0.707107 -0.000000
v 0.866025 0.500000 0.000000
v 0.965926 0.258819 0.000000
v 1.000000 0.000000 0.000000
v 0.965926 -0.258819 0.000000
v 0.866025 -0.500000 0.000000
v 0.707107 -0.707107 -0.000000
v 0.500000 -0.866025 0.000000
v 0.258819 -0.965926 0.000000
v 0.250000 0.965926 0.066987
v 0.482963 0.866025 0.129410
v 0.683013 0.707107 0.183013
v 0.836516 0.500000 0.224144
v 0.933013 0.258819 0.250000
v 0.965926 0.000000 0.258819
v 0.933013 -0.258819 0.250000
v 0.836516 -0.500000 0.224144
v 0.683013 -0.707107 0.183013
v 0.482963 -0.866025 0.129410
v 0.250000 -0.965926 0.066987
v 0.224144 0.965926 0.129410
v 0.433013 0.866025 0.250000
v 0.612372 0.707107 0.353553
v 0.750000 0.500000 0.433013
v 0.836516 0.258819 0.482963
v 0.866025 0.000000 0.500000
v 0.836516 -0.258819 0.482963
v 0.750000 -0.500000 0.433013
v 0.612372 -0.707107 0.353553
v 0.433013 -0.866025 0.250000
v 0.224144 -0.965926 0.129410
v 0.183013 0.965926 0.183013
v 0.353553 0.866025 0.353553
v 0.500000 0.707107 0.500000
v 0.612372 0.500000 0.612372
v 0.683013 0.258819 0.683013
v 0.707107 0.000000 0.707107
v 0.683013 -0.258819 0.683013
v 0.612372 -0.500000 0.612372
v 0.500000 -0.707107 0.500000
v 0.353553 -0.866025 0.353553
v 0.183013 -0.965926 0.183013
v 0.129410 0.965926 0.224144
v 0.250000 0.866025 0.433013
v 0.353553 0.707107 0.612372
v 0.433013 0.500000 0.750000
v 0.482963 0.258819 0.836516
v 0.500000 0.000000 0.866025
v 0.482963 -0.258819 0.836516
v 0.433013 -0.500000 0.750000
v 0.353553 -0.707107 0.612372
v 0.250000 -0.866025 0.433013
v 0.129410 -0.965926 0.224144
v 0.066987 0.965926 0.250000
v 0.129409 0.866025 0.482963
v 0.183013 0.707107 0.683012
v 0.224144 0.500000 0.836516
v 0.250000 0.258819 0.933013
v 0.258819 0.000000 0.965926
v 0.250000 -0.258819 0.933013
v 0.224144 -0.500000 0.836516
v 0.183013 -0.707107 0.683012
v 0.129409 -0.866025 0.482963
v 0.066987 -0.965926 0.250000
v 0.000000 0.965926 0.258819
v -0.000000 0.866025 0.500000
v 0.000000 0.707107 0.707106
v -0.000000 0.500000 0.866025
v -0.000000 0.258819 0.965926
v -0.000000 0.000000 1.000000
v -0.000000 -0.258819 0.965926
v -0.000000 -0.500000 0.866025
v 0.000000 -0.707107 0.707106
v -0.000000 -0.866025 0.500000
v 0.000000 -0.965926 0.258819
v -0.066987 0.965926 0.250000
v -0.129410 0.866025 0.482963
v -0.183013 0.707107 0.683012
v -0.224144 0.500000 0.836516
v -0.250000 0.258819 0.933013
v -0.258819 0.000000 0.965926
v -0.250000 -0.258819 0.933013
v -0.224144 -0.500000 0.836516
v -0.183013 -0.707107 0.683012
v -0.129410 -0.866025 0.482963
v -0.066987 -0.965926 0.250000
v -0.129410 0.965926 0.224144
v -0.250000 0.866025 0.433013
v -0.353553 0.707107 0.612372
v -0.433013 0.500000 0.750000
v -0.482963 0.258819 0.836516
v -0.500000 0.000000 0.866025
v -0.482963 -0.258819 0.836516
v -0.433013 -0.500000 0.750000
v -0.353553 -0.707107 0.612372
v -0.250000 -0.866025 0.433013
v -0.129410 -0.965926 0.224144
v -0.183013 0.965926 0.183013
v -0.353553 0.866025 0.353553
v -0.500000 0.707107 0.500000
v -0.612372 0.500000 0.612372
v -0.683013 0.258819 0.683013
v -0.707107 0.000000 0.707106
v -0.683013 -0.258819 0.683013
v -0.612372 -0.500000 0.612372
v -0.500000 -0.707107 0.500000
v -0.353553 -0.866025 0.353553
v -0.183013 -0.965926 0.183013
v -0.224144 0.965926 0.129410
v -0.433013 0.866025 0.250000
v -0.612372 0.707107 0.353553
v -0.750000 0.500000 0.433013
v -0.836516 0.258819 0.482963
v -0.866025 0.000000 0.500000
v -0.836516 -0.258819 0.482963
v -0.750000 -0.500000 0.433013
v -0.612372 -0.707107 0.353553
v -0.433013 -0.866025 0.250000
v -0.224144 -0.965926 0.129410
v -0.250000 0.965926 0.066987
v -0.482963 0.866025 0.129409
v -0.683012 0.707107 0.183013
v -0.836516 0.500000 0.224144
v -0.933013 0.258819 0.250000
v -0.965925 0.000000 0.258819
v -0.933013 -0.258819 0.250000
v -0.836516 -0.500000 0.224144
v -0.683012 -0.707107 0.183013
v -0.482963 -0.866025 0.129409
v -0.250000 -0.965926 0.066987
v -0.258819 0.965926 0.000000
v -0.500000 0.866025 -0.000000
v -0.707106 0.707107 0.000000
v -0.866025 0.500000 -0.000000
v -0.965926 0.258819 -0.000000
v -0.999999 0.000000 -0.000000
v -0.965926 -0.258819 -0.000000
v -0.866025 -0.500000 -0.000000
v -0.707106 -0.707107 0.000000
v -0.500000 -0.866025 -0.000000
v -0.258819 -0.965926 0.000000
v -0.250000 0.965926 -0.066987
v -0.482963 0.866025 -0.129410
v -0.683012 0.707107 -0.183013
v -0.836516 0.500000 -0.224144
v -0.933013 0.258819 -0.250000
v -0.965925 0.000000 -0.258819
v -0.933013 -0.258819 -0.250000
v -0.836516 -0.500000 -0.224144
v -0.683012 -0.707107 -0.183013
v -0.482963 -0.866025 -0.129410
v -0.250000 -0.965926 -0.066987
v -0.224144 0.965926 -0.129410
v -0.433012 0.866025 -0.250000
v -0.612372 0.707107 -0.353553
v -0.750000 0.500000 -0.433013
v -0.836516 0.258819 -0.482963
v -0.866025 0.000000 -0.500000
v -0.836516 -0.258819 -0.482963
v -0.750000 -0.500000 -0.433013
v -0.612372 -0.707107 -0.353553
v -0.433012 -0.866025 -0.250000
v -0.224144 -0.965926 -0.129410
v -0.183013 0.965926 -0.183013
v -0.353553 0.866025 -0.353553
v -0.500000 0.707107 -0.500000
v -0.612372 0.500000 -0.612372
v -0.683013 0.258819 -0.683013
v -0.707106 0.000000 -0.707106
v -0.683013 -0.258819 -0.683013
v -0.612372 -0.500000 -0.612372
v -0.500000 -0.707107 -0.500000
v -0.353553 -0.866025 -0.353553
v -0.183013 -0.965926 -0.183013
v -0.129410 0.965926 -0.224144
v -0.250000 0.866025 -0.433012
v -0.353553 0.707107 -0.612372
v -0.433012 0.500000 -0.750000
v -0.482963 0.258819 -0.836516
v -0.500000 0.000000 -0.866025
v -0.482963 -0.258819 -0.836516
v -0.433012 -0.500000 -0.750000
v -0.353553 -0.707107 -0.612372
v -0.250000 -0.866025 -0.433012
v -0.129410 -0.965926 -0.224144
v -0.066987 0.965926 -0.250000
v -0.129409 0.866025 -0.482963
v -0.183013 0.707107 -0.683012
v -0.224144 0.500000 -0.836516
v -0.250000 0.258819 -0.933013
v -0.258819 0.000000 -0.965925
v -0.250000 -0.258819 -0.933013
v -0.224144 -0.500000 -0.836516
v -0.183013 -0.707107 -0.683012
v -0.129409 -0.866025 -0.482963
v -0.066987 -0.965926 -0.250000
v 0.000000 0.866025 -0.500000
v 0.000000 0.707107 -0.707106
v 0.000000 -0.866025 -0.500000
vn -0.0000 1.0000 -0.0000
vn -0.0000 0.9632 -0.2689
vn -0.0000 0.4954 -0.8687
vn -0.0000 0.2561 -0.9666
vn -0.0000 -0.0000 -1.0000
vn -0.0000 -0.2561 -0.9666
vn -0.0000 -0.4954 -0.8687
vn -0.0000 -0.7017 -0.7125
vn -0.0000 -0.9632 -0.2689
vn -0.0000 -1.0000 -0.0000
vn 0.0696 0.9632 -0.2597
vn 0.1315 0.8613 -0.4908
vn 0.1844 0.7017 -0.6882
vn 0.2248 0.4954 -0.8391
vn 0.2502 0.2561 -0.9337
vn 0.2588 -0.0000 -0.9659
vn 0.2502 -0.2561 -0.9337
vn 0.2248 -0.4954 -0.8391
vn 0.1844 -0.7017 -0.6882
vn 0.1315 -0.8613 -0.4908
vn 0.0696 -0.9632 -0.2597
vn 0.1345 0.9632 -0.2329
vn 0.2540 0.8613 -0.4400
vn 0.3562 0.7017 -0.6170
vn 0.4343 0.4954 -0.7523
vn 0.4833 0.2561 -0.8371
vn 0.5000 -0.0000 -0.8660
vn 0.4833 -0.2561 -0.8371
vn 0.4343 -0.4954 -0.7523
vn 0.3562 -0.7017 -0.6170
vn 0.2540 -0.8613 -0.4400
vn 0.1345 -0.9632 -0.2329
vn 0.1901 0.9632 -0.1901
vn 0.3593 0.8613 -0.3593
vn 0.5038 0.7017 -0.5038
vn 0.6143 0.4954 -0.6143
vn 0.6835 0.2561 -0.6835
vn 0.7071 -0.0000 -0.7071
vn 0.6835 -0.2561 -0.6835
vn 0.6143 -0.4954 -0.6143
vn 0.5038 -0.7017 -0.5038
vn 0.3593 -0.8613 -0.3593
vn 0.1901 -0.9632 -0.1901
vn 0.2329 0.9632 -0.1345
vn 0.4400 0.8613 -0.2540
vn 0.6170 0.7017 -0.3562
vn 0.7523 0.4954 -0.4343
vn 0.8371 0.2561 -0.4833
vn 0.8660 -0.0000 -0.5000
vn 0.8371 -0.2561 -0.4833
vn 0.7523 -0.4954 -0.4343
vn 0.6170 -0.7017 -0.3562
vn 0.4400 -0.8613 -0.2540
vn 0.2329 -0.9632 -0.1345
vn 0.2597 0.9632 -0.0696
vn 0.4908 0.8613 -0.1315
vn 0.6882 0.7017 -0.1844
vn 0.8391 0.4954 -0.2248
vn 0.9337 0.2561 -0.2502
vn 0.9659 -0.0000 -0.2588
vn 0.9337 -0.2561 -0.2502
vn 0.8391 -0.4954 -0.2248
vn 0.6882 -0.7017 -0.1844
vn 0.4908 -0.8613 -0.1315
vn 0.2597 -0.9632 -0.0696
vn 0.2689 0.9632 -0.0000
vn 0.5081 0.8613 -0.0000
vn 0.7125 0.7017 -0.0000
vn 0.8687 0.4954 -0.0000
vn 0.9666 0.2561 -0.0000
vn 1.0000 -0.0000 -0.0000
vn 0.9666 -0.2561 -0.0000
vn 0.8687 -0.4954 -0.0000
vn 0.7125 -0.7017 -0.0000
vn 0.5081 -0.8613 -0.0000
vn 0.2689 -0.9632 -0.0000
vn 0.2597 0.9632 0.0696
vn 0.4908 0.8613 0.1315
vn 0.6882 0.7017 0.1844
vn 0.8391 0.4954 0.2248
vn 0.9337 0.2561 0.2502
vn 0.9659 -0.0000 0.2588
vn 0.9337 -0.2561 0.2502
vn 0.8391 -0.4954 0.2248
vn 0.6882 -0.7017 0.1844
vn 0.4908 -0.8613 0.1315
vn 0.2597 -0.9632 0.0696
vn 0.2329 0.9632 0.1345
vn 0.4400 0.8613 0.2540
vn 0.6170 0.7017 0.3562
vn 0.7523 0.4954 0.4343
vn 0.8371 0.2561 0.4833
vn 0.8660 -0.0000 0.5000
vn 0.8371 -0.2561 0.4833
vn 0.7523 -0.4954 0.4343
vn 0.6170 -0.7017 0.3562
vn 0.4400 -0.8613 0.2540
vn 0.2329 -0.9632 0.1345
vn 0.1901 0.9632 0.1901
vn 0.3593 0.8613 0.3593
vn 0.5038 0.7017 0.5038
vn 0.6143 0.4954 0.6143
vn 0.6835 0.2561 0.6835
vn 0.7071 -0.0000 0.7071
vn 0.6835 -0.2561 0.6835
vn 0.6143 -0.4954 0.6143
vn 0.5038 -0.7017 0.5038
vn 0.3593 -0.8613 0.3593
vn 0.1901 -0.9632 0.1901
vn 0.1345 0.9632 0.2329
vn 0.2540 0.8613 0.4400
vn 0.3562 0.7017 0.6170
vn 0.4343 0.4954 0.7523
vn 0.4833 0.2561 0.8371
vn 0.5000 -0.0000 0.8660
vn 0.4833 -0.2561 0.8371
vn 0.4343 -0.4954 0.7523
vn 0.3562 -0.7017 0.6170
vn 0.2540 -0.8613 0.4400
vn 0.1345 -0.9632 0.2329
vn 0.0696 0.9632 0.2597
vn 0.1315 0.8613 0.4908
vn 0.1844 0.7017 0.6882
vn 0.2248 0.4954 0.8391
vn 0.2502 0.2561 0.9337
vn 0.2588 -0.0000 0.9659
vn 0.2502 -0.2561 0.9337
vn 0.2248 -0.4954 0.8391
vn 0.1844 -0.7017 0.6882
vn 0.1315 -0.8613 0.4908
vn 0.0696 -0.9632 0.2597
vn -0.0000 0.9632 0.2689
vn -0.0000 0.8613 0.5081
vn -0.0000 0.7017 0.7125
vn -0.0000 0.4954 0.8687
vn -0.0000 0.2561 0.9666
vn -0.0000 -0.0000 1.0000
vn -0.0000 -0.2561 0.9666
vn -0.0000 -0.4954 0.8687
vn -0.0000 -0.7017 0.7125
vn -0.0000 -0.8613 0.5081
vn -0.0000 -0.9632 0.2689
vn -0.0696 0.9632 0.2597
vn -0.1315 0.8613 0.4908
vn -0.1844 0.7017 0.6882
vn -0.2248 0.4954 0.8391
vn -0.2502 0.2561 0.9337
vn -0.2588 -0.0000 0.9659
vn -0.2502 -0.2561 0.9337
vn -0.2248 -0.4954 0.8391
vn -0.1844 -0.7017 0.6882
vn -0.1315 -0.8613 0.4908
vn -0.0696 -0.9632 0.2597
vn -0.1345 0.9632 0.2329
vn -0.2540 0.8613 0.4400
vn -0.3562 0.7017 0.6170
vn -0.4343 0.4954 0.7523
vn -0.4833 0.2561 0.8371
vn -0.5000 -0.0000 0.8660
vn -0.4833 -0.2561 0.8371
vn -0.4343 -0.4954 0.7523
vn -0.3562 -0.7017 0.6170
vn -0.2540 -0.8613 0.4400
vn -0.1345 -0.9632 0.2329
vn -0.1901 0.9632 0.1901
vn -0.3593 0.8613 0.3593
vn -0.5038 0.7017 0.5038
vn -0.6143 0.4954 0.6143
vn -0.6835 0.2561 0.6835
vn -0.7071 -0.0000 0.7071
vn -0.6835 -0.2561 0.6835
vn -0.6143 -0.4954 0.6143
vn -0.5038 -0.7017 0.5038
vn -0.3593 -0.8613 0.3593
vn -0.1901 -0.9632 0.1901
vn -0.2329 0.9632 0.1345
vn -0.4400 0.8613 0.2540
vn -0.6170 0.7017 0.3562
vn -0.7523 0.4954 0.4343
vn -0.8371 0.2561 0.4833
vn -0.8660 -0.0000 0.5000
vn -0.8371 -0.2561 0.4833
vn -0.7523 -0.4954 0.4343
vn -0.6170 -0.7017 0.3562
vn -0.4400 -0.8613 0.2540
vn -0.2329 -0.9632 0.1345
vn -0.2597 0.9632 0.0696
vn -0.4908 0.8613 0.1315
vn -0.6882 0.7017 0.1844
vn -0.8391 0.4954 0.2248
vn -0.9337 0.2561 0.2502
vn -0.9659 -0.0000 0.2588
vn -0.9337 -0.2561 0.2502
vn -0.8391 -0.4954 0.2248
vn -0.6882 -0.7017 0.1844
vn -0.4908 -0.8613 0.1315
vn -0.2597 -0.9632 0.0696
vn -0.2689 0.9632 -0.0000
vn -0.5081 0.8613 -0.0000
vn -0.7125 0.7017 -0.0000
vn -0.8687 0.4954 -0.0000
vn -0.9666 0.2561 -0.0000
vn -1.0000 -0.0000 -0.0000
vn -0.9666 -0.2561 -0.0000
vn -0.8687 -0.4954 -0.0000
vn -0.7125 -0.7017 -0.0000
vn -0.5081 -0.8613 -0.0000
vn -0.2689 -0.9632 -0.0000
vn -0.2597 0.9632 -0.0696
vn -0.4908 0.8613 -0.1315
vn -0.6882 0.7017 -0.1844
vn -0.8391 0.4954 -0.2248
vn -0.9337 0.2561 -0.2502
vn -0.9659 -0.0000 -0.2588
vn -0.9337 -0.2561 -0.2502
vn -0.8391 -0.4954 -0.2248
vn -0.6882 -0.7017 -0.1844
vn -0.4908 -0.8613 -0.1315
vn -0.2597 -0.9632 -0.0696
vn -0.2329 0.9632 -0.1345
vn -0.4400 0.8613 -0.2540
vn -0.6170 0.7017 -0.3562
vn -0.7523 0.4954 -0.4343
vn -0.8371 0.2561 -0.4833
vn -0.8660 -0.0000 -0.5000
vn -0.8371 -0.2561 -0.4833
vn -0.7523 -0.4954 -0.4343
vn -0.6170 -0.7017 -0.3562
vn -0.4400 -0.8613 -0.2540
vn -0.2329 -0.9632 -0.1345
vn -0.1901 0.9632 -0.1901
vn -0.3593 0.8613 -0.3593
vn -0.5038 0.7017 -0.5038
vn -0.6143 0.4954 -0.6143
vn -0.6835 0.2561 -0.6835
vn -0.7071 -0.0000 -0.7071
vn -0.6835 -0.2561 -0.6835
vn -0.6143 -0.4954 -0.6143
vn -0.5038 -0.7017 -0.5038
vn -0.3593 -0.8613 -0.3593
vn -0.1901 -0.9632 -0.1901
vn -0.1345 0.9632 -0.2329
vn -0.2540 0.8613 -0.4400
vn -0.3562 0.7017 -0.6170
vn -0.4343 0.4954 -0.7523
vn -0.4833 0.2561 -0.8371
vn -0.5000 -0.0000 -0.8660
vn -0.4833 -0.2561 -0.8371
vn -0.4343 -0.4954 -0.7523
vn -0.3562 -0.7017 -0.6170
vn -0.2540 -0.8613 -0.4400
vn -0.1345 -0.9632 -0.2329
vn -0.0696 0.9632 -0.2597
vn -0.1315 0.8613 -0.4908
vn -0.1844 0.7017 -0.6882
vn -0.2248 0.4954 -0.8391
vn -0.2502 0.2561 -0.9337
vn -0.2588 -0.0000 -0.9659
vn -0.2502 -0.2561 -0.9337
vn -0.2248 -0.4954 -0.8391
vn -0.1844 -0.7017 -0.6882
vn -0.1315 -0.8613 -0.4908
vn -0.0696 -0.9632 -0.2597
vn -0.0000 0.8613 -0.5081
vn -0.0000 0.7017 -0.7125
vn -0.0000 -0.8613 -0.5081
vt 0.750000 0.916667
vt 0.729167 1.000000
vt 0.708333 0.916667
vt 0.750000 0.333333
vt 0.750000 0.416667
vt 0.708333 0.416667
vt 0.708333 0.333333
vt 0.750000 0.583333
vt 0.750000 0.666667
vt 0.708333 0.666667
vt 0.708333 0.583333
vt 0.729167 0.000000
vt 0.750000 0.083333
vt 0.708333 0.083333
vt 0.750000 0.833333
vt 0.708333 0.833333
vt 0.750000 0.250000
vt 0.708333 0.250000
vt 0.750000 0.500000
vt 0.708333 0.500000
vt 0.750000 0.750000
vt 0.708333 0.750000
vt 0.750000 0.166667
vt 0.708333 0.166667
vt 0.666667 0.583333
vt 0.666667 0.500000
vt 0.666667 0.833333
vt 0.666667 0.750000
vt 0.666667 0.250000
vt 0.666667 0.166667
vt 0.666667 0.416667
vt 0.666667 0.666667
vt 0.666667 0.083333
vt 0.687500 1.000000
vt 0.666667 0.916667
vt 0.666667 0.333333
vt 0.687500 0.000000
vt 0.625000 0.666667
vt 0.625000 0.583333
vt 0.645833 0.000000
vt 0.625000 0.083333
vt 0.625000 0.916667
vt 0.625000 0.833333
vt 0.625000 0.333333
vt 0.625000 0.250000
vt 0.625000 0.500000
vt 0.625000 0.750000
vt 0.625000 0.166667
vt 0.625000 0.416667
vt 0.645833 1.000000
vt 0.583333 0.500000
vt 0.583333 0.416667
vt 0.583333 0.750000
vt 0.583333 0.666667
vt 0.583333 0.166667
vt 0.583333 0.083333
vt 0.604167 1.000000
vt 0.583333 0.916667
vt 0.583333 0.333333
vt 0.583333 0.583333
vt 0.604167 0.000000
vt 0.583333 0.833333
vt 0.583333 0.250000
vt 0.541667 0.583333
vt 0.541667 0.500000
vt 0.541667 0.833333
vt 0.541667 0.750000
vt 0.541667 0.250000
vt 0.541667 0.166667
vt 0.541667 0.416667
vt 0.541667 0.666667
vt 0.541667 0.083333
vt 0.562500 1.000000
vt 0.541667 0.916667
vt 0.541667 0.333333
vt 0.562500 0.000000
vt 0.500000 0.416667
vt 0.500000 0.333333
vt 0.500000 0.666667
vt 0.500000 0.583333
vt 0.520833 0.000000
vt 0.500000 0.083333
vt 0.500000 0.916667
vt 0.500000 0.833333
vt 0.500000 0.250000
vt 0.500000 0.500000
vt 0.500000 0.750000
vt 0.500000 0.166667
vt 0.520833 1.000000
vt 0.458333 0.500000
vt 0.458333 0.416667
vt 0.458333 0.750000
vt 0.458333 0.666667
vt 0.458333 0.166667
vt 0.458333 0.083333
vt 0.479167 1.000000
vt 0.458333 0.916667
vt 0.458333 0.333333
vt 0.458333 0.583333
vt 0.479167 0.000000
vt 0.458333 0.833333
vt 0.458333 0.250000
vt 0.416667 0.333333
vt 0.416667 0.250000
vt 0.416667 0.583333
vt 0.416667 0.500000
vt 0.416667 0.833333
vt 0.416667 0.750000
vt 0.416667 0.166667
vt 0.416667 0.416667
vt 0.416667 0.666667
vt 0.416667 0.083333
vt 0.437500 1.000000
vt 0.416667 0.916667
vt 0.437500 0.000000
vt 0.395833 1.000000
vt 0.375000 0.916667
vt 0.375000 0.416667
vt 0.375000 0.333333
vt 0.375000 0.666667
vt 0.375000 0.583333
vt 0.395833 0.000000
vt 0.375000 0.083333
vt 0.375000 0.833333
vt 0.375000 0.250000
vt 0.375000 0.500000
vt 0.375000 0.750000
vt 0.375000 0.166667
vt 0.333333 0.250000
vt 0.333333 0.166667
vt 0.333333 0.500000
vt 0.333333 0.416667
vt 0.333333 0.750000
vt 0.333333 0.666667
vt 0.333333 0.083333
vt 0.354167 1.000000
vt 0.333333 0.916667
vt 0.333333 0.333333
vt 0.333333 0.583333
vt 0.354167 0.000000
vt 0.333333 0.833333
vt 0.291667 0.916667
vt 0.291667 0.833333
vt 0.291667 0.333333
vt 0.291667 0.250000
vt 0.291667 0.583333
vt 0.291667 0.500000
vt 0.291667 0.750000
vt 0.291667 0.166667
vt 0.291667 0.416667
vt 0.291667 0.666667
vt 0.291667 0.083333
vt 0.312500 1.000000
vt 0.312500 0.000000
vt 0.250000 0.166667
vt 0.250000 0.083333
vt 0.270833 1.000000
vt 0.250000 0.916667
vt 0.250000 0.416667
vt 0.250000 0.333333
vt 0.250000 0.666667
vt 0.250000 0.583333
vt 0.270833 0.000000
vt 0.250000 0.833333
vt 0.250000 0.250000
vt 0.250000 0.500000
vt 0.250000 0.750000
vt 0.208333 0.833333
vt 0.208333 0.750000
vt 0.208333 0.250000
vt 0.208333 0.166667
vt 0.208333 0.500000
vt 0.208333 0.416667
vt 0.208333 0.666667
vt 0.208333 0.083333
vt 0.229167 1.000000
vt 0.208333 0.916667
vt 0.208333 0.333333
vt 0.208333 0.583333
vt 0.229167 0.000000
vt 0.187500 0.000000
vt 0.166667 0.083333
vt 0.166667 0.916667
vt 0.166667 0.833333
vt 0.166667 0.333333
vt 0.166667 0.250000
vt 0.166667 0.583333
vt 0.166667 0.500000
vt 0.166667 0.750000
vt 0.166667 0.166667
vt 0.166667 0.416667
vt 0.166667 0.666667
vt 0.187500 1.000000
vt 0.125000 0.750000
vt 0.125000 0.666667
vt 0.125000 0.166667
vt 0.125000 0.083333
vt 0.145833 1.000000
vt 0.125000 0.916667
vt 0.125000 0.416667
vt 0.125000 0.333333
vt 0.125000 0.583333
vt 0.145833 0.000000
vt 0.125000 0.833333
vt 0.125000 0.250000
vt 0.125000 0.500000
vt 0.083333 0.833333
vt 0.083333 0.750000
vt 0.083333 0.250000
vt 0.083333 0.166667
vt 0.083333 0.500000
vt 0.083333 0.416667
vt 0.083333 0.666667
vt 0.083333 0.083333
vt 0.104167 1.000000
vt 0.083333 0.916667
vt 0.083333 0.333333
vt 0.083333 0.583333
vt 0.104167 0.000000
vt 0.041667 0.666667
vt 0.041667 0.583333
vt 0.062500 0.000000
vt 0.041667 0.083333
vt 0.041667 0.916667
vt 0.041667 0.833333
vt 0.041667 0.333333
vt 0.041667 0.250000
vt 0.041667 0.500000
vt 0.041667 0.750000
vt 0.041667 0.166667
vt 0.041667 0.416667
vt 0.062500 1.000000
vt 0.000000 0.750000
vt 0.000000 0.666667
vt 0.000000 0.166667
vt 0.000000 0.083333
vt 0.020833 1.000000
vt 0.000000 0.916667
vt 0.000000 0.416667
vt 0.000000 0.333333
vt 0.000000 0.583333
vt 0.020833 0.000000
vt 0.000000 0.833333
vt 0.000000 0.250000
vt 0.000000 0.500000
vt 1.000000 0.500000
vt 1.000000 0.583333
vt 0.958333 0.583333
vt 0.958333 0.500000
vt 1.000000 0.750000
vt 1.000000 0.833333
vt 0.958333 0.833333
vt 0.958333 0.750000
vt 1.000000 0.166667
vt 1.000000 0.250000
vt 0.958333 0.250000
vt 0.958333 0.166667
vt 1.000000 0.416667
vt 0.958333 0.416667
vt 1.000000 0.666667
vt 0.958333 0.666667
vt 1.000000 0.083333
vt 0.958333 0.083333
vt 1.000000 0.916667
vt 0.979167 1.000000
vt 0.958333 0.916667
vt 1.000000 0.333333
vt 0.958333 0.333333
vt 0.979167 0.000000
vt 0.916667 0.666667
vt 0.916667 0.583333
vt 0.937500 0.000000
vt 0.916667 0.083333
vt 0.916667 0.916667
vt 0.916667 0.833333
vt 0.916667 0.333333
vt 0.916667 0.250000
vt 0.916667 0.500000
vt 0.916667 0.750000
vt 0.916667 0.166667
vt 0.916667 0.416667
vt 0.937500 1.000000
vt 0.875000 0.500000
vt 0.875000 0.416667
vt 0.875000 0.750000
vt 0.875000 0.666667
vt 0.875000 0.166667
vt 0.875000 0.083333
vt 0.895833 1.000000
vt 0.875000 0.916667
vt 0.875000 0.333333
vt 0.875000 0.583333
vt 0.895833 0.000000
vt 0.875000 0.833333
vt 0.875000 0.250000
vt 0.833333 0.583333
vt 0.833333 0.500000
vt 0.833333 0.833333
vt 0.833333 0.750000
vt 0.833333 0.250000
vt 0.833333 0.166667
vt 0.833333 0.416667
vt 0.833333 0.666667
vt 0.833333 0.083333
vt 0.854167 1.000000
vt 0.833333 0.916667
vt 0.833333 0.333333
vt 0.854167 0.000000
vt 0.791667 0.416667
vt 0.791667 0.333333
vt 0.791667 0.666667
vt 0.791667 0.583333
vt 0.812500 0.000000
vt 0.791667 0.083333
vt 0.791667 0.916667
vt 0.791667 0.833333
vt 0.791667 0.250000
vt 0.791667 0.500000
vt 0.791667 0.750000
vt 0.791667 0.166667
vt 0.812500 1.000000
vt 0.770833 1.000000
vt 0.770833 0.000000
s 1
f 2/1/2 1/2/1 11/3/11
f 7/4/7 6/5/6 17/6/17 18/7/18
f 4/8/4 3/9/3 14/10/14 15/11/15
f 10/12/10 9/13/9 21/14/21
f 264/15/264 2/1/2 11/3/11 12/16/12
f 8/17/8 7/4/7 18/7/18 19/18/19
f 5/19/5 4/8/4 15/11/15 16/20/16
f 265/21/265 264/15/264 12/16/12 13/22/13
f 266/23/266 8/17/8 19/18/19 20/24/20
f 6/5/6 5/19/5 16/20/16 17/6/17
f 3/9/3 265/21/265 13/22/13 14/10/14
f 9/13/9 266/23/266 20/24/20 21/14/21
f 16/20/16 15/11/15 26/25/26 27/26/27
f 13/22/13 12/16/12 23/27/23 24/28/24
f 20/24/20 19/18/19 30/29/30 31/30/31
f 17/6/17 16/20/16 27/26/27 28/31/28
f 14/10/14 13/22/13 24/28/24 25/32/25
f 21/14/21 20/24/20 31/30/31 32/33/32
f 11/3/11 1/34/1 22/35/22
f 18/7/18 17/6/17 28/31/28 29/36/29
f 15/11/15 14/10/14 25/32/25 26/25/26
f 10/37/10 21/14/21 32/33/32
f 12/16/12 11/3/11 22/35/22 23/27/23
f 19/18/19 18/7/18 29/36/29 30/29/30
f 26/25/26 25/32/25 36/38/36 37/39/37
f 10/40/10 32/33/32 43/41/43
f 23/27/23 22/35/22 33/42/33 34/43/34
f 30/29/30 29/36/29 40/44/40 41/45/41
f 27/26/27 26/25/26 37/39/37 38/46/38
f 24/28/24 23/27/23 34/43/34 35/47/35
f 31/30/31 30/29/30 41/45/41 42/48/42
f 28/31/28 27/26/27 38/46/38 39/49/39
f 25/32/25 24/28/24 35/47/35 36/38/36
f 32/33/32 31/30/31 42/48/42 43/41/43
f 22/35/22 1/50/1 33/42/33
f 29/36/29 28/31/28 39/49/39 40/44/40
f 39/49/39 38/46/38 49/51/49 50/52/50
f 36/38/36 35/47/35 46/53/46 47/54/47
f 43/41/43 42/48/42 53/55/53 54/56/54
f 33/42/33 1/57/1 44/58/44
f 40/44/40 39/49/39 50/52/50 51/59/51
f 37/39/37 36/38/36 47/54/47 48/60/48
f 10/61/10 43/41/43 54/56/54
f 34/43/34 33/42/33 44/58/44 45/62/45
f 41/45/41 40/44/40 51/59/51 52/63/52
f 38/46/38 37/39/37 48/60/48 49/51/49
f 35/47/35 34/43/34 45/62/45 46/53/46
f 42/48/42 41/45/41 52/63/52 53/55/53
f 49/51/49 48/60/48 59/64/59 60/65/60
f 46/53/46 45/62/45 56/66/56 57/67/57
f 53/55/53 52/63/52 63/68/63 64/69/64
f 50/52/50 49/51/49 60/65/60 61/70/61
f 47/54/47 46/53/46 57/67/57 58/71/58
f 54/56/54 53/55/53 64/69/64 65/72/65
f 44/58/44 1/73/1 55/74/55
f 51/59/51 50/52/50 61/70/61 62/75/62
f 48/60/48 47/54/47 58/71/58 59/64/59
f 10/76/10 54/56/54 65/72/65
f 45/62/45 44/58/44 55/74/55 56/66/56
f 52/63/52 51/59/51 62/75/62 63/68/63
f 62/75/62 61/70/61 72/77/72 73/78/73
f 59/64/59 58/71/58 69/79/69 70/80/70
f 10/81/10 65/72/65 76/82/76
f 56/66/56 55/74/55 66/83/66 67/84/67
f 63/68/63 62/75/62 73/78/73 74/85/74
f 60/65/60 59/64/59 70/80/70 71/86/71
f 57/67/57 56/66/56 67/84/67 68/87/68
f 64/69/64 63/68/63 74/85/74 75/88/75
f 61/70/61 60/65/60 71/86/71 72/77/72
f 58/71/58 57/67/57 68/87/68 69/79/69
f 65/72/65 64/69/64 75/88/75 76/82/76
f 55/74/55 1/89/1 66/83/66
f 72/77/72 71/86/71 82/90/82 83/91/83
f 69/79/69 68/87/68 79/92/79 80/93/80
f 76/82/76 75/88/75 86/94/86 87/95/87
f 66/83/66 1/96/1 77/97/77
f 73/78/73 72/77/72 83/91/83 84/98/84
f 70/80/70 69/79/69 80/93/80 81/99/81
f 10/100/10 76/82/76 87/95/87
f 67/84/67 66/83/66 77/97/77 78/101/78
f 74/85/74 73/78/73 84/98/84 85/102/85
f 71/86/71 70/80/70 81/99/81 82/90/82
f 68/87/68 67/84/67 78/101/78 79/92/79
f 75/88/75 74/85/74 85/102/85 86/94/86
f 85/102/85 84/98/84 95/103/95 96/104/96
f 82/90/82 81/99/81 92/105/92 93/106/93
f 79/92/79 78/101/78 89/107/89 90/108/90
f 86/94/86 85/102/85 96/104/96 97/109/97
f 83/91/83 82/90/82 93/106/93 94/110/94
f 80/93/80 79/92/79 90/108/90 91/111/91
f 87/95/87 86/94/86 97/109/97 98/112/98
f 77/97/77 1/113/1 88/114/88
f 84/98/84 83/91/83 94/110/94 95/103/95
f 81/99/81 80/93/80 91/111/91 92/105/92
f 10/115/10 87/95/87 98/112/98
f 78/101/78 77/97/77 88/114/88 89/107/89
f 88/114/88 1/116/1 99/117/99
f 95/103/95 94/110/94 105/118/105 106/119/106
f 92/105/92 91/111/91 102/120/102 103/121/103
f 10/122/10 98/112/98 109/123/109
f 89/107/89 88/114/88 99/117/99 100/124/100
f 96/104/96 95/103/95 106/119/106 107/125/107
f 93/106/93 92/105/92 103/121/103 104/126/104
f 90/108/90 89/107/89 100/124/100 101/127/101
f 97/109/97 96/104/96 107/125/107 108/128/108
f 94/110/94 93/106/93 104/126/104 105/118/105
f 91/111/91 90/108/90 101/127/101 102/120/102
f 98/112/98 97/109/97 108/128/108 109/123/109
f 108/128/108 107/125/107 118/129/118 119/130/119
f 105/118/105 104/126/104 115/131/115 116/132/116
f 102/120/102 101/127/101 112/133/112 113/134/113
f 109/123/109 108/128/108 119/130/119 120/135/120
f 99/117/99 1/136/1 110/137/110
f 106/119/106 105/118/105 116/132/116 117/138/117
f 103/121/103 102/120/102 113/134/113 114/139/114
f 10/140/10 109/123/109 120/135/120
f 100/124/100 99/117/99 110/137/110 111/141/111
f 107/125/107 106/119/106 117/138/117 118/129/118
f 104/126/104 103/121/103 114/139/114 115/131/115
f 101/127/101 100/124/100 111/141/111 112/133/112
f 111/141/111 110/137/110 121/142/121 122/143/122
f 118/129/118 117/138/117 128/144/128 129/145/129
f 115/131/115 114/139/114 125/146/125 126/147/126
f 112/133/112 111/141/111 122/143/122 123/148/123
f 119/130/119 118/129/118 129/145/129 130/149/130
f 116/132/116 115/131/115 126/147/126 127/150/127
f 113/134/113 112/133/112 123/148/123 124/151/124
f 120/135/120 119/130/119 130/149/130 131/152/131
f 110/137/110 1/153/1 121/142/121
f 117/138/117 116/132/116 127/150/127 128/144/128
f 114/139/114 113/134/113 124/151/124 125/146/125
f 10/154/10 120/135/120 131/152/131
f 131/152/131 130/149/130 141/155/141 142/156/142
f 121/142/121 1/157/1 132/158/132
f 128/144/128 127/150/127 138/159/138 139/160/139
f 125/146/125 124/151/124 135/161/135 136/162/136
f 10/163/10 131/152/131 142/156/142
f 122/143/122 121/142/121 132/158/132 133/164/133
f 129/145/129 128/144/128 139/160/139 140/165/140
f 126/147/126 125/146/125 136/162/136 137/166/137
f 123/148/123 122/143/122 133/164/133 134/167/134
f 130/149/130 129/145/129 140/165/140 141/155/141
f 127/150/127 126/147/126 137/166/137 138/159/138
f 124/151/124 123/148/123 134/167/134 135/161/135
f 134/167/134 133/164/133 144/168/144 145/169/145
f 141/155/141 140/165/140 151/170/151 152/171/152
f 138/159/138 137/166/137 148/172/148 149/173/149
f 135/161/135 134/167/134 145/169/145 146/174/146
f 142/156/142 141/155/141 152/171/152 153/175/153
f 132/158/132 1/176/1 143/177/143
f 139/160/139 138/159/138 149/173/149 150/178/150
f 136/162/136 135/161/135 146/174/146 147/179/147
f 10/180/10 142/156/142 153/175/153
f 133/164/133 132/158/132 143/177/143 144/168/144
f 140/165/140 139/160/139 150/178/150 151/170/151
f 137/166/137 136/162/136 147/179/147 148/172/148
f 10/181/10 153/175/153 164/182/164
f 144/168/144 143/177/143 154/183/154 155/184/155
f 151/170/151 150/178/150 161/185/161 162/186/162
f 148/172/148 147/179/147 158/187/158 159/188/159
f 145/169/145 144/168/144 155/184/155 156/189/156
f 152/171/152 151/170/151 162/186/162 163/190/163
f 149/173/149 148/172/148 159/188/159 160/191/160
f 146/174/146 145/169/145 156/189/156 157/192/157
f 153/175/153 152/171/152 163/190/163 164/182/164
f 143/177/143 1/193/1 154/183/154
f 150/178/150 149/173/149 160/191/160 161/185/161
f 147/179/147 146/174/146 157/192/157 158/187/158
f 157/192/157 156/189/156 167/194/167 168/195/168
f 164/182/164 163/190/163 174/196/174 175/197/175
f 154/183/154 1/198/1 165/199/165
f 161/185/161 160/191/160 171/200/171 172/201/172
f 158/187/158 157/192/157 168/195/168 169/202/169
f 10/203/10 164/182/164 175/197/175
f 155/184/155 154/183/154 165/199/165 166/204/166
f 162/186/162 161/185/161 172/201/172 173/205/173
f 159/188/159 158/187/158 169/202/169 170/206/170
f 156/189/156 155/184/155 166/204/166 167/194/167
f 163/190/163 162/186/162 173/205/173 174/196/174
f 160/191/160 159/188/159 170/206/170 171/200/171
f 167/194/167 166/204/166 177/207/177 178/208/178
f 174/196/174 173/205/173 184/209/184 185/210/185
f 171/200/171 170/206/170 181/211/181 182/212/182
f 168/195/168 167/194/167 178/208/178 179/213/179
f 175/197/175 174/196/174 185/210/185 186/214/186
f 165/199/165 1/215/1 176/216/176
f 172/201/172 171/200/171 182/212/182 183/217/183
f 169/202/169 168/195/168 179/213/179 180/218/180
f 10/219/10 175/197/175 186/214/186
f 166/204/166 165/199/165 176/216/176 177/207/177
f 173/205/173 172/201/172 183/217/183 184/209/184
f 170/206/170 169/202/169 180/218/180 181/211/181
f 180/218/180 179/213/179 190/220/190 191/221/191
f 10/222/10 186/214/186 197/223/197
f 177/207/177 176/216/176 187/224/187 188/225/188
f 184/209/184 183/217/183 194/226/194 195/227/195
f 181/211/181 180/218/180 191/221/191 192/228/192
f 178/208/178 177/207/177 188/225/188 189/229/189
f 185/210/185 184/209/184 195/227/195 196/230/196
f 182/212/182 181/211/181 192/228/192 193/231/193
f 179/213/179 178/208/178 189/229/189 190/220/190
f 186/214/186 185/210/185 196/230/196 197/223/197
f 176/216/176 1/232/1 187/224/187
f 183/217/183 182/212/182 193/231/193 194/226/194
f 190/220/190 189/229/189 200/233/200 201/234/201
f 197/223/197 196/230/196 207/235/207 208/236/208
f 187/224/187 1/237/1 198/238/198
f 194/226/194 193/231/193 204/239/204 205/240/205
f 191/221/191 190/220/190 201/234/201 202/241/202
f 10/242/10 197/223/197 208/236/208
f 188/225/188 187/224/187 198/238/198 199/243/199
f 195/227/195 194/226/194 205/240/205 206/244/206
f 192/228/192 191/221/191 202/241/202 203/245/203
f 189/229/189 188/225/188 199/243/199 200/233/200
f 196/230/196 195/227/195 206/244/206 207/235/207
f 193/231/193 192/228/192 203/245/203 204/239/204
f 203/246/203 202/247/202 213/248/213 214/249/214
f 200/250/200 199/251/199 210/252/210 211/253/211
f 207/254/207 206/255/206 217/256/217 218/257/218
f 204/258/204 203/246/203 214/249/214 215/259/215
f 201/260/201 200/250/200 211/253/211 212/261/212
f 208/262/208 207/254/207 218/257/218 219/263/219
f 198/264/198 1/265/1 209/266/209
f 205/267/205 204/258/204 215/259/215 216/268/216
f 202/247/202 201/260/201 212/261/212 213/248/213
f 10/269/10 208/262/208 219/263/219
f 199/251/199 198/264/198 209/266/209 210/252/210
f 206/255/206 205/267/205 216/268/216 217/256/217
f 213/248/213 212/261/212 223/270/223 224/271/224
f 10/272/10 219/263/219 230/273/230
f 210/252/210 209/266/209 220/274/220 221/275/221
f 217/256/217 216/268/216 227/276/227 228/277/228
f 214/249/214 213/248/213 224/271/224 225/278/225
f 211/253/211 210/252/210 221/275/221 222/279/222
f 218/257/218 217/256/217 228/277/228 229/280/229
f 215/259/215 214/249/214 225/278/225 226/281/226
f 212/261/212 211/253/211 222/279/222 223/270/223
f 219/263/219 218/257/218 229/280/229 230/273/230
f 209/266/209 1/282/1 220/274/220
f 216/268/216 215/259/215 226/281/226 227/276/227
f 226/281/226 225/278/225 236/283/236 237/284/237
f 223/270/223 222/279/222 233/285/233 234/286/234
f 230/273/230 229/280/229 240/287/240 241/288/241
f 220/274/220 1/289/1 231/290/231
f 227/276/227 226/281/226 237/284/237 238/291/238
f 224/271/224 223/270/223 234/286/234 235/292/235
f 10/293/10 230/273/230 241/288/241
f 221/275/221 220/274/220 231/290/231 232/294/232
f 228/277/228 227/276/227 238/291/238 239/295/239
f 225/278/225 224/271/224 235/292/235 236/283/236
f 222/279/222 221/275/221 232/294/232 233/285/233
f 229/280/229 228/277/228 239/295/239 240/287/240
f 236/283/236 235/292/235 246/296/246 247/297/247
f 233/285/233 232/294/232 243/298/243 244/299/244
f 240/287/240 239/295/239 250/300/250 251/301/251
f 237/284/237 236/283/236 247/297/247 248/302/248
f 234/286/234 233/285/233 244/299/244 245/303/245
f 241/288/241 240/287/240 251/301/251 252/304/252
f 231/290/231 1/305/1 242/306/242
f 238/291/238 237/284/237 248/302/248 249/307/249
f 235/292/235 234/286/234 245/303/245 246/296/246
f 10/308/10 241/288/241 252/304/252
f 232/294/232 231/290/231 242/306/242 243/298/243
f 239/295/239 238/291/238 249/307/249 250/300/250
f 249/307/249 248/302/248 259/309/259 260/310/260
f 246/296/246 245/303/245 256/311/256 257/312/257
f 10/313/10 252/304/252 263/314/263
f 243/298/243 242/306/242 253/315/253 254/316/254
f 250/300/250 249/307/249 260/310/260 261/317/261
f 247/297/247 246/296/246 257/312/257 258/318/258
f 244/299/244 243/298/243 254/316/254 255/319/255
f 251/301/251 250/300/250 261/317/261 262/320/262
f 248/302/248 247/297/247 258/318/258 259/309/259
f 245/303/245 244/299/244 255/319/255 256/311/256
f 252/304/252 251/301/251 262/320/262 263/314/263
f 242/306/242 1/321/1 253/315/253
f 259/309/259 258/318/258 5/19/5 6/5/6
f 256/311/256 255/319/255 265/21/265 3/9/3
f 263/314/263 262/320/262 266/23/266 9/13/9
f 253/315/253 1/322/1 2/1/2
f 260/310/260 259/309/259 6/5/6 7/4/7
f 257/312/257 256/311/256 3/9/3 4/8/4
f 10/323/10 263/314/263 9/13/9
f 254/316/254 253/315/253 2/1/2 264/15/264
f 261/317/261 260/310/260 7/4/7 8/17/8
f 258/318/258 257/312/257 4/8/4 5/19/5
f 255/319/255 254/316/254 264/15/264 265/21/265
f 262/320/262 261/317/261 8/17/8 266/23/266
